<svg xmlns="http://www.w3.org/2000/svg" width="182.332" height="25.887" viewBox="0 0 182.332 25.887"><g id="Group_13130" data-name="Group 13130" transform="translate(-171 18295.443)"><g id="Group_13127" data-name="Group 13127"><g id="Group_104" data-name="Group 104" transform="translate(196.229 -18295.443)"><g id="Group_102" data-name="Group 102" transform="translate(51.675)"><path id="Path_83" data-name="Path 83" d="M1313.118 1312.3a6.648 6.648.0 0113.295.0 6.647 6.647.0 11-13.295.0zm10.821.0a4.187 4.187.0 00-8.374.0 4.188 4.188.0 108.374.0z" transform="translate(-1313.118 -1299.032)" fill="#fff"/><path id="Path_84" data-name="Path 84" d="M1315.592 1309.329v-1.74a1.237 1.237.0 10-2.474.0v10.467a1.237 1.237.0 102.474.0v-8.727z" transform="translate(-1313.118 -1299.529)" fill="#fff"/><path id="Path_85" data-name="Path 85" d="M1315.592 1274.9v-1.74a1.237 1.237.0 10-2.474.0v10.467a1.237 1.237.0 102.474.0V1274.9z" transform="translate(-1313.118 -1271.914)" fill="#fff"/></g><g id="Group_103" data-name="Group 103" transform="translate(84.749 6.687)"><path id="Path_86" data-name="Path 86" d="M1480.315 1312.3a6.648 6.648.0 0113.295.0 6.647 6.647.0 11-13.295.0zm10.821.0a4.187 4.187.0 00-8.374.0 4.188 4.188.0 108.374.0z" transform="translate(-1480.315 -1305.719)" fill="#fff"/></g><path id="Path_87" data-name="Path 87" d="M1058.533 1305.719h-.014a6.847 6.847.0 00-4.161 1.348 1.236 1.236.0 10-2.472.025v10.467a1.237 1.237.0 102.474.0V1311.8a3.992 3.992.0 013.863-3.644 1.236 1.236.0 10.311-2.433z" transform="translate(-1051.886 -1299.032)" fill="#fff"/><path id="Path_88" data-name="Path 88" d="M1812.878 1305.719h-.014a6.847 6.847.0 00-4.161 1.348 1.236 1.236.0 10-2.472.025v10.467a1.237 1.237.0 102.474.0V1311.8a3.992 3.992.0 013.863-3.644 1.236 1.236.0 10.311-2.433z" transform="translate(-1657.012 -1299.032)" fill="#fff"/></g><g id="Group_105" data-name="Group 105" transform="translate(204.812 -18293.332)"><path id="Path_89" data-name="Path 89" d="M1107.055 1313.523h-9.314a3.921 3.921.0 004.088 3.438 3.8 3.8.0 003.222-1.327 1.261 1.261.0 011.652-.325 1.1 1.1.0 01.217 1.543 6.607 6.607.0 01-11.643-4.3 6.262 6.262.0 016.471-6.552c3.6.0 6.281 2.545 6.281 6.552A.97.97.0 011107.055 1313.523zm-1.462-1.922a3.715 3.715.0 00-3.845-3.385 3.834 3.834.0 00-4.007 3.385z" transform="translate(-1095.277 -1301.366)" fill="#fff"/><path id="Path_90" data-name="Path 90" d="M1173.435 1308.162a4.46 4.46.0 013.953-2.166c3.141.0 4.874 2.058 4.874 5.6v6.2a1.232 1.232.0 11-2.464.0v-6.038c0-2.112-1.056-3.357-2.789-3.357a3.36 3.36.0 00-3.574 3.682v5.713a1.232 1.232.0 11-2.464.0v-10.424a1.232 1.232.0 112.464.0z" transform="translate(-1155.998 -1301.366)" fill="#fff"/><path id="Path_91" data-name="Path 91" d="M1236.909 1289.575a1.043 1.043.0 110-2.085h1.354v-3.655a1.232 1.232.0 112.464.0v3.655h1.787a1.043 1.043.0 110 2.085h-1.787v9.449a1.232 1.232.0 11-2.464.0v-9.449z" transform="translate(-1208.045 -1282.59)" fill="#fff"/><path id="Path_92" data-name="Path 92" d="M1391.656 1315.952l3.52-8.529a1.238 1.238.0 011.6-.677 1.183 1.183.0 01.65 1.6l-6.931 16.57a1.19 1.19.0 11-2.193-.921l2-4.928-4.44-10.749a1.221 1.221.0 112.3-.812z" transform="translate(-1328.325 -1301.9)" fill="#fff"/><path id="Path_93" data-name="Path 93" d="M1568.427 1318.539a1.378 1.378.0 01-1.3 1.056h-.054a1.407 1.407.0 01-1.327-1.056l-3.114-8.772-3.005 8.772a1.355 1.355.0 01-1.3 1.056h-.054a1.407 1.407.0 01-1.327-1.056l-3.926-10.261a1.22 1.22.0 112.328-.731l2.924 8.258 2.816-7.987a1.491 1.491.0 011.489-1.137h.135a1.462 1.462.0 011.462 1.137l2.816 7.987 2.9-8.258a1.24 1.24.0 011.543-.812 1.207 1.207.0 01.812 1.543z" transform="translate(-1462.422 -1301.915)" fill="#fff"/><path id="Path_94" data-name="Path 94" d="M1663.876 1308.162a4.459 4.459.0 013.953-2.166c3.141.0 4.874 2.058 4.874 5.6v6.2a1.232 1.232.0 11-2.464.0v-6.038c0-2.112-1.056-3.357-2.789-3.357a3.36 3.36.0 00-3.574 3.682v5.713a1.232 1.232.0 11-2.464.0v-10.424a1.232 1.232.0 112.464.0z" transform="translate(-1549.423 -1301.366)" fill="#fff"/><path id="Path_95" data-name="Path 95" d="M1742.314 1313.523H1733a3.921 3.921.0 004.088 3.438 3.8 3.8.0 003.222-1.327 1.261 1.261.0 011.652-.325 1.1 1.1.0 01.217 1.543 6.607 6.607.0 01-11.643-4.3 6.262 6.262.0 016.471-6.552c3.6.0 6.282 2.545 6.282 6.552A.97.97.0 011742.314 1313.523zm-1.462-1.922a3.715 3.715.0 00-3.845-3.385A3.834 3.834.0 001733 1311.6z" transform="translate(-1604.874 -1301.366)" fill="#fff"/></g></g><g id="Group_106" data-name="Group 106" transform="translate(171 -18292.465)"><circle id="Ellipse_31" data-name="Ellipse 31" cx="2.528" cy="2.528" r="2.528" transform="translate(0 14.737)" fill="#00cd92"/><circle id="Ellipse_32" data-name="Ellipse 32" cx="2.528" cy="2.528" r="2.528" transform="translate(0 7.369)" fill="#e8f1f7"/><circle id="Ellipse_33" data-name="Ellipse 33" cx="2.528" cy="2.528" r="2.528" fill="#e8f1f7"/><circle id="Ellipse_34" data-name="Ellipse 34" cx="2.528" cy="2.528" r="2.528" transform="translate(7.489 14.737)" fill="#e8f1f7"/><circle id="Ellipse_35" data-name="Ellipse 35" cx="2.528" cy="2.528" r="2.528" transform="translate(7.489 7.369)" fill="#e8f1f7"/><circle id="Ellipse_36" data-name="Ellipse 36" cx="2.528" cy="2.528" r="2.528" transform="translate(7.489)" fill="#00cd92"/><circle id="Ellipse_37" data-name="Ellipse 37" cx="2.528" cy="2.528" r="2.528" transform="translate(14.669 14.737)" fill="#e8f1f7"/><circle id="Ellipse_38" data-name="Ellipse 38" cx="2.528" cy="2.528" r="2.528" transform="translate(14.669 7.369)" fill="#00cd92"/><circle id="Ellipse_39" data-name="Ellipse 39" cx="2.528" cy="2.528" r="2.528" transform="translate(14.669)" fill="#e8f1f7"/></g></g></svg>